<svg xmlns="http://www.w3.org/2000/svg" width="400" height="300.917">
  <path fill="#378D8B" fill-rule="evenodd" d="M205.17 16.58c-3.158 2.484-3.296 7.046-.3 9.861l2.119 1.99-1.618 13.418c-1.908 15.827-1.066 14.424-7.75 12.906l-5.415-1.229-.695-4.835c-.628-4.363-.472-5.102 1.603-7.567 5.659-6.726-2.175-15.269-9.045-9.865-4.036 3.175-2.734 10.379 2.171 12.014.87.29 3.096 9.088 2.422 9.573-.071.052-3.971-.103-8.666-.344l-8.536-.438-5.077-10.123c-4.371-8.716-4.938-10.427-4.078-12.314 3.422-7.511-5.232-14.132-10.769-8.238-3.82 4.066-.804 11.639 4.635 11.639 1.86 0 12.836 18.725 11.537 19.68-.286.21-11.703 3.144-14.956 3.843-2.551.548-10.876-12.025-9.574-14.459 3.776-7.056-5.43-13.689-10.908-7.859-4.312 4.59-.722 11.58 5.987 11.658 1.561.018 9.449 10.697 9.449 12.792 0 .497-1.194 1.521-2.655 2.276-1.46.755-4.729 3.701-7.265 6.545-4.989 5.598-4.778 5.58-10.476.903-2.813-2.309-3.427-3.412-3.44-6.184-.031-6.33-7.101-9.35-11.526-4.925-4.773 4.772-1.239 11.873 5.649 11.352 3.53-.267 4.549.147 8.91 3.622l4.925 3.924-1.235 4.763c-5.35 20.626 4.705 38.878 25.109 45.576 20.891 6.858 77.386 6.733 97.365-.214 19.604-6.818 29.576-24.26 25.033-43.787-1.084-4.661 8.505-11.715 13.408-9.865 6.19 2.337 11.452-6.407 6.709-11.149-4.276-4.276-11.961-.849-11.989 5.347-.009 1.861-1.122 3.17-4.961 5.835l-4.951 3.436-2.313-3.947c-3.139-5.356-9.22-10.782-15.563-13.885-5.964-2.918-6.15-1.856 1.979-11.288 3.979-4.615 5.469-5.734 7.643-5.734 5.948 0 9.364-4.956 6.815-9.886-3.652-7.062-13.229-3.886-12.299 4.079.376 3.224-.089 4.061-6.347 11.419l-6.753 7.941-3.409-.741c-1.875-.407-6.195-1.027-9.601-1.378-3.406-.351-6.195-.9-6.198-1.219-.029-3.451 5.983-14.802 7.84-14.802 6.191 0 7.836-9.5 2.154-12.438-6.486-3.354-13.045 4.238-8.744 10.12 1.084 1.482.818 2.739-2.065 9.773l-3.308 8.072-4.129.555c-2.27.305-6.328.976-9.017 1.491-2.689.515-5.074.752-5.299.527-.742-.742 2.644-26.357 3.485-26.357.453 0 1.836-1.013 3.075-2.252 6.147-6.147-2.233-15.003-9.092-9.608m-46.496 6.764c.605.729.965 2.277.8 3.44-.437 3.082-5.667 3.082-6.104 0-.55-3.878 3.019-6.193 5.304-3.44m113.344 11.06c0 2.411-.355 2.787-2.864 3.031-3.142.305-4.492-1.464-3.5-4.589 1.014-3.195 6.364-1.885 6.364 1.558m-81.376-.276c2.588 2.589.064 6.907-3.395 5.809-1.008-.32-2.094-1.406-2.413-2.413-1.098-3.46 3.22-5.984 5.808-3.396M182.11 57.33c-7.438 5.304-9.276 7.045-12.452 11.799-11.326 16.95-9.489 38.464 4.539 53.172l5.161 5.411-5.505-.669c-23.392-2.843-36.485-11.683-40.392-27.272-.588-2.347-.433-2.523 2.219-2.523 1.924 0 2.852-.448 2.852-1.376 0-.918-.917-1.377-2.752-1.377-2.447 0-2.752-.305-2.752-2.752 0-2.65.152-2.752 4.128-2.752 3.058 0 4.128-.357 4.128-1.376 0-1.023-1.078-1.376-4.201-1.376h-4.201l.624-2.982c1.612-7.692 7.732-16.625 13.398-19.555 3.389-1.752 3.188-1.832 5.957 2.353 2.357 3.561 4.937 4.871 4.937 2.507 0-.64-1.036-2.688-2.302-4.551-2.262-3.33-2.27-3.404-.472-4.366 5.802-3.106 31.244-5.28 27.086-2.315m48.09 2.743c4.172 2.672 7.395 6.159 10.992 11.896 3.6 5.742 3.571 6.238-.596 10.07-2.749 2.529-3.211 3.396-2.299 4.318.914.925 1.686.631 3.889-1.48 3.744-3.586 4.149-2.744 4.115 8.548-.044 14.699-5.297 25.459-15.511 31.775l-4.498 2.782-17.774.327c-21.172.39-24.464-.011-29.951-3.645-19.847-13.146-19.447-50.443.686-63.898 8.573-5.729 10.056-5.251 11.054 3.567.419 3.702 1.01 5.392 1.886 5.392 1.99 0 2.172-.981 1.257-6.773-1.042-6.594-1.38-6.291 5.122-4.593 4.831 1.261 5.988 1.26 11.429-.01 10.808-2.524 13.986-2.253 20.199 1.724m15.813-2.5c.527.526.312 1.303-.561 2.028-1.678 1.392-1.876 3.702-.319 3.702.603 0 2.222-1.078 3.596-2.395l2.5-2.394 5 2.289c7.231 3.31 19.365 15.779 17.048 17.517-.188.141-1.7 1.195-3.361 2.342-2.404 1.661-2.804 2.346-1.961 3.361.892 1.075 1.465.986 3.643-.564 3.393-2.416 3.795-1.583 3.769 7.809-.05 18.01-9.338 28.661-29.165 33.445-13.802 3.33-16.919 3.113-11.43-.795 8.789-6.259 15.166-24.456 12.916-36.861-1.262-6.961-.328-8.533 4.577-7.704 4.63.782 8.285-2.078 8.285-6.484 0-9.363-12.931-9.132-13.256.238-.164 4.701-1.512 4.658-4.052-.128-3.105-5.854-7.907-11.157-12.585-13.898-2.228-1.306-4.051-2.602-4.051-2.88 0-.848 18.494.459 19.407 1.372m-125.897 2.851c1.289 2.41-.76 4.98-3.644 4.571-2.263-.32-3.301-2.501-2.358-4.957.732-1.908 4.918-1.639 6.002.386M45.872 170.263c-15.415 4.077-18.527 8.972-19.788 31.113-1.291 22.679.912 28.855 12.415 34.796l8.29 4.281v6.726c0 5.003-.37 7.032-1.446 7.925-2.306 1.913-3.273-.634-2.599-6.844l.587-5.409-3.546.566c-1.951.311-6.513.841-10.138 1.178l-6.592.612-.639 5.969c-1.486 13.872.711 25.332 5.346 27.881 8.016 4.41 32.896-2.596 36.688-10.331 3.957-8.07 5.602-36.697 2.488-43.297-1.086-2.302-10.704-7.998-13.505-7.998-4.754 0-7.57-10.917-5.148-19.954 1.242-4.635 2.96-2.122 3.605 5.275.352 4.037.958 7.34 1.346 7.34.388 0 4.257-1.294 8.597-2.875l7.892-2.875-.018-7.905c-.06-26.085-4.741-31.225-23.835-26.174m87.804 1.786c-1.914.702-4.761 2.189-6.327 3.304l-2.847 2.027.638 26.677c.586 24.495 1.335 41.826 2.923 67.629l.6 9.759 4.506.597c4.847.643 17.334-.202 19.099-1.292 1.027-.635 4.501-13.356 7.848-28.736 1.96-9.005 2.048-8.874 3.658 5.431.732 6.502 1.57 13.576 1.862 15.72l.531 3.899 7.054-.067c7.4-.07 16.304-1.078 17.17-1.944 1.756-1.757 10.318-77.501 10.765-95.236l.22-8.716-7.339.043c-4.037.024-9.042.541-11.121 1.151l-3.782 1.107-.681 12.611c-.375 6.936-.977 14.469-1.339 16.739-.754 4.737-.323 5.896-4.689-12.614-3.264-13.84-2.99-13.606-12.586-10.756-5.846 1.736-5.251.574-8.041 15.703-4.137 22.434-4.549 22.023-5.518-5.502l-.667-18.941-4.229.065c-2.325.035-5.794.639-7.708 1.342m147.975-.804c-16.405 1.123-28.466 3.313-28.873 5.243-1.207 5.728-2.72 45.208-2.747 71.677L250 278.44l5.505-.079c3.027-.043 7.642-.593 10.255-1.222l4.75-1.143-.163-17.505c-.139-14.827.047-17.581 1.213-18.005.757-.275 4.679-1.344 8.715-2.374l7.34-1.873.597-5.046c.329-2.776.638-8.087.688-11.804l.091-6.759-6.193.635c-3.406.35-7.183.871-8.394 1.159l-2.201.523.661-8.151c.795-9.794-.312-8.651 9.418-9.72 9.732-1.069 8.363 1.014 9.109-13.863l.631-12.571-3.121.16c-1.717.089-4.979.288-7.25.443m51.022.327c-2.466.434-4.796 1.125-5.179 1.535-.903.968-3.544 37.279-4.276 58.781-.584 17.131-1.091 19.259-4.294 18.03-2.612-1.002-.347-58.101 2.714-68.413.823-2.774-17.879-5.754-20.385-3.248-1.792 1.793-5.208 44.181-5.301 65.78-.137 32.069 3.092 37.332 19.724 32.156 6.22-1.936 7.26-1.804 7.26.925 0 .98.383 1.781.851 1.781 3.314 0 15.659-2.216 18.344-3.293l3.282-1.316.129-36.915c.072-20.304.573-43.296 1.113-51.094.541-7.798.895-14.26.788-14.361-.793-.744-11.139-.988-14.77-.348m-235.425 1.045c-4.289.447-9.656 1.123-11.927 1.503l-4.128.69-1.059 12.366c-1.968 22.998-3.114 44.376-3.699 69.017l-.583 24.541h7.319c8.877 0 15.912-1.179 25.268-4.235l7.063-2.306.612-4.084c.668-4.45-.299-17.835-1.284-17.783-.335.018-3.293.622-6.573 1.344-10.129 2.228-10.092 2.243-10.092-4.069 0-8.684.501-9.325 10.426-13.336l8.774-3.546.598-3.985c.328-2.191.305-6.71-.051-10.041l-.649-6.057-3.356.514c-1.846.283-5.983.801-9.193 1.151l-5.837.638.523-3.57c.288-1.964.779-5.688 1.091-8.276l.568-4.705 7.498-1.488c4.124-.819 8.427-1.488 9.562-1.488 2.014.001 2.064-.242 2.052-9.862-.02-15.636.45-15.371-22.923-12.933m118.356 1.334c-2.77.745-5.315 1.647-5.654 2.004-1.122 1.184-2.703 35.006-3.258 69.727l-.548 34.214 6.332-.604c9.415-.898 18.532-2.742 24.334-4.921l5.159-1.939.401-7.087c.221-3.899.235-8.79.031-10.871l-.37-3.782-3.355.7c-1.845.385-5.172.966-7.393 1.292l-4.037.593.578-26.409c.525-24.003 1.352-37.983 2.96-50.033l.581-4.358-5.361.06c-2.949.034-7.629.67-10.4 1.414m144.983.209c-4.554 1.428-5.066 1.861-5.637 4.761-.911 4.633-2.572 42.063-3.268 73.643l-.602 27.334 6.341-.566c8.382-.748 18.175-2.68 24.275-4.789 5.901-2.039 6.158-2.652 6.286-15.002l.091-8.808-6.651 1.191c-3.658.655-7.167 1.212-7.798 1.239-2.419.102.307-69.946 3.077-79.08.664-2.189-9.037-2.142-16.114.077m-300.249 2.753c3.841 2.439 4.358 23.52.611 24.945-3.552 1.35-3.62 1.287-4.8-4.424-3.149-15.248-14.869-8.002-14.861 9.188.004 10.299 1.158 12.035 11.277 16.982 10.772 5.266 11.048 5.786 11.024 20.734-.04 24.237-2.261 26.98-23.222 28.669-10.013.807-11.927-2.021-11.927-17.628v-5.838h4.588c4.561 0 4.587.017 4.599 2.982.029 6.812 3.23 9.789 9.132 8.493 4.347-.955 5.842-4.105 6.278-13.233.471-9.858-.806-11.757-11.734-17.442-8.958-4.661-9.08-4.878-10.182-18.219-1.526-18.477.171-29.512 4.922-32.005 6.146-3.225 21.145-5.203 24.295-3.204m77.972 6.115c.422 9.853 3.02 35.642 4.158 41.284 3.076 15.252 9.611 2.397 13.952-27.444 1.703-11.708 1.633-11.547 5.022-11.547 2.845 0 3.419 1.774 9.1 28.107 3.396 15.741 5.281 19.373 8.425 16.229.816-.816 3.083-22.002 4.302-40.207l.676-10.092 5.684-.272 5.684-.272-.43 6.235c-.236 3.43-1.056 15.937-1.821 27.795-1.245 19.28-3.119 40.375-4.658 52.444-.631 4.946-1.341 5.322-10.074 5.342l-5.616.012-.637-5.734c-1.179-10.605-5.875-36.976-7.039-39.53-2.838-6.23-5.686-3.118-7.419 8.108-.858 5.551-2.862 17.007-4.455 25.459l-2.896 15.367h-15.169l-.574-5.275c-2.104-19.312-6.082-75.955-6.084-86.621-.001-3.669 2.56-5.439 7.339-5.07 2.143.165 2.309.539 2.53 5.682m146.094 1.669v6.716l-8.453 1.125c-10.205 1.359-8.782-.899-9.54 15.133l-.64 13.562 8.857-.651 8.858-.65-.014 4.942c-.019 6.779-.339 7.059-10.049 8.804l-8.56 1.538.541 17.665.542 17.665-4.116.617c-2.264.34-4.337.397-4.606.128-2.376-2.376-2.268-90.228.112-91.142.919-.352 8.743-.989 25.003-2.035 1.965-.126 2.065.191 2.065 6.583m55.195 10.716c-.171 9.335.151 29.93.716 45.767.564 15.837.815 29.004.559 29.261-.257.257-2.584.67-5.171.919-5.104.49-6.306-.317-6.331-4.256-.011-1.685-.369-2.024-1.62-1.534-16.912 6.619-22.129 6.625-24.023.026-1.53-5.33-1.997-57.713-.654-73.273l.782-9.052 4.514.433c5.826.56 5.449-.587 4.471 13.586-1.099 15.946-1.114 40.99-.028 48.5 1.031 7.133 2.228 8.466 8.112 9.032 8.384.805 8.037 2.325 8.721-38.183.663-39.254.604-38.901 6.421-38.478l3.84.279-.309 16.973M113.205 180.35c.306.798.556 3.474.556 5.946 0 5.057.757 4.602-10.574 6.372-8.92 1.393-8.452.634-9.571 15.513-1.171 15.557-2.015 13.854 6.384 12.881 13.003-1.508 12.844-1.551 12.844 3.493v4.372l-4.816 1.701a735.1 735.1 0 0 0-9.66 3.502l-4.842 1.801.255 12.08.256 12.081 8.819-.266 8.819-.265.516 3.18c.658 4.058-.038 6.7-1.96 7.439-3.956 1.52-14.651 3.214-20.292 3.214h-6.272l-.682-10.779c-.703-11.113.19-64.523 1.269-75.918l.608-6.422 6.422-.526c14.003-1.147 21.327-.946 21.921.601m108.963 36.242c-.17 20.731-.044 38.749.28 40.04l.589 2.347 7.747-.596 7.748-.596v5.074c0 4.514-.243 5.167-2.205 5.913-3.175 1.207-12.116 2.666-17.978 2.933l-5.046.231-.637-26.107c-.35-14.358-.35-34.979 0-45.824l.637-19.717 2.752-.587c7.103-1.515 6.46-5.399 6.113 36.889m146.279-36.242c-1.039 2.708-1.739 43.872-1.042 61.288l.694 17.325 8.285-.625 8.285-.626-.535 5.186c-.294 2.852-.692 5.342-.883 5.533-.666.666-14.022 3.016-19.131 3.365l-5.146.352-.588-9.611c-.735-12.019-.754-77.878-.023-80.604.535-1.997 2.179-2.59 8.02-2.896 2.042-.108 2.498.183 2.064 1.313"/>
</svg>