<svg xmlns="http://www.w3.org/2000/svg" viewBox="0 0 312.5 312.5">
  <path fill="#378D8B" d="M312.5 156.25c0 55.5-22.625 97.938-66.25 125.688-24.188 15.437-59.188 30.562-90 30.562-53.938 0-89-8.563-117.063-50C22.314 237.5 0 188.75 0 156.25c0-42.813 11-87.875 38.875-116.125S112.75 0 156.25 0c59.375 0 104.813 33.125 131.25 81.938 11.75 22.062 25 47.374 25 74.312z"/>
  <switch fill="#fff" transform="translate(98.213 51.17) scale(1.15742)">
    <g xmlns:i="http://ns.adobe.com/AdobeIllustrator/10.0/" i:extraneous="self">
      <path d="M91.5 48.5c-1.93 0-3.5 1.57-3.5 3.5 0 .381.077.741.189 1.084l-4.69 3.263c-1.117-2.555-2.844-4.729-5.211-6.478-1.628-1.202-3.488-2.124-5.476-2.827l5.787-6.839c.43.189.902.297 1.401.297 1.93 0 3.5-1.57 3.5-3.5s-1.57-3.5-3.5-3.5-3.5 1.57-3.5 3.5c0 .705.214 1.36.574 1.91l-6.338 7.491c-2.86-.758-5.914-1.096-8.946-1.099l2.85-6.839c.12.014.237.037.36.037 1.93 0 3.5-1.57 3.5-3.5s-1.57-3.5-3.5-3.5-3.5 1.57-3.5 3.5c0 1.09.511 2.052 1.294 2.694l-3.193 7.664c-2.97.152-5.853.603-8.433 1.277l1.435-12.196A3.5 3.5 0 0 0 55.5 31c0-1.93-1.57-3.5-3.5-3.5s-3.5 1.57-3.5 3.5c0 1.438.873 2.674 2.115 3.212l-1.503 12.777a39.153 39.153 0 0 0-5.058-1.15l-.621-4.653A3.502 3.502 0 0 0 45.5 38c0-1.93-1.57-3.5-3.5-3.5s-3.5 1.57-3.5 3.5a3.496 3.496 0 0 0 2.95 3.444l.55 4.12a41.969 41.969 0 0 0-7.679-.158l-4.932-9.863A3.48 3.48 0 0 0 30.499 33c0-1.93-1.57-3.5-3.5-3.5s-3.5 1.57-3.5 3.5 1.57 3.5 3.5 3.5c.206 0 .405-.026.602-.061l4.594 9.188c-2.619.349-5.156.993-7.469 1.986l-4.081-6.349A3.463 3.463 0 0 0 21.5 39c0-1.93-1.57-3.5-3.5-3.5s-3.5 1.57-3.5 3.5 1.57 3.5 3.5 3.5c.336 0 .655-.062.963-.151l3.951 6.146c-.766.417-1.51.864-2.202 1.375a16.023 16.023 0 0 0-4.545 5.149l-4.442-3.658A3.504 3.504 0 0 0 8.5 46.5C6.57 46.5 5 48.07 5 50s1.57 3.5 3.5 3.5c.723 0 1.395-.221 1.953-.597l4.833 3.979C14.448 59.005 14 61.37 14 64c0 18.564 20.679 18.99 35 19h1c14.321-.01 35-.436 35-19 0-2.061-.28-3.956-.796-5.706l5.128-3.567a3.461 3.461 0 0 0 2.167.773c1.93 0 3.5-1.57 3.5-3.5s-1.569-3.5-3.499-3.5zM80 35.5c.827 0 1.5.673 1.5 1.5s-.673 1.5-1.5 1.5-1.5-.673-1.5-1.5.673-1.5 1.5-1.5zm-53-1c-.827 0-1.5-.673-1.5-1.5s.673-1.5 1.5-1.5 1.5.673 1.5 1.5-.673 1.5-1.5 1.5zm-18.5 17c-.827 0-1.5-.673-1.5-1.5s.673-1.5 1.5-1.5 1.5.673 1.5 1.5-.673 1.5-1.5 1.5zm32-13.5c0-.827.673-1.5 1.5-1.5s1.5.673 1.5 1.5-.673 1.5-1.5 1.5-1.5-.673-1.5-1.5zM16.226 67H16v-2h.037c-.016-.33-.037-.656-.037-1 0-.343.031-.667.047-1H16v-2h.247c.619-3.986 2.498-7.19 5.653-9.521a17.344 17.344 0 0 1 2.097-1.301l2.162 3.363a.999.999 0 0 0 1.382.3 1 1 0 0 0 .301-1.382l-2.023-3.147c4.172-1.727 9.14-2.244 13.884-1.946a14.366 14.366 0 0 0-3.514 2.217C32 53.13 29.5 58.894 29.5 65c0 5.303 2.841 12.358 8.115 15.655C27.378 79.817 17.799 76.937 16.226 67zM49.5 81c-2.963-.001-6.134-.01-9.304-.173C33.917 78.51 30.5 70.686 30.5 65c0-5.816 2.368-11.295 6.334-14.654 1.683-1.426 3.53-2.35 5.41-2.75l.027.004.738 5.532a1 1 0 1 0 1.983-.264l-.66-4.952a37.06 37.06 0 0 1 4.375 1.04l.293.01V49h1l.294-.044c2.145-.66 4.571-1.153 7.105-1.431 2.002.354 3.977 1.305 5.766 2.82 2.249 1.904 3.96 4.504 5.041 7.446l-2.857 2.449a.998.998 0 0 0-.108 1.409.993.993 0 0 0 1.409.11l2.197-1.883A21.11 21.11 0 0 1 69.5 65c0 5.633-3.356 13.362-9.526 15.758-3.556.228-7.146.241-10.474.242zm13.049-.451C67.717 77.21 70.5 70.248 70.5 65c0-2.015-.277-3.989-.792-5.861l1.402-1.202A3.47 3.47 0 0 0 73 58.5c1.93 0 3.5-1.57 3.5-3.5s-1.57-3.5-3.5-3.5-3.5 1.57-3.5 3.5c0 .506.113.984.308 1.42l-.777.666c-1.148-2.959-2.929-5.564-5.219-7.504a14.297 14.297 0 0 0-3.64-2.269c.18-.008.359-.013.539-.018l.212.089.038-.092c2.817-.061 5.672.168 8.356.785l-1.08 1.276a1 1 0 0 0 1.527 1.293l1.672-1.977c2.072.665 4.001 1.581 5.665 2.81 2.177 1.608 3.735 3.64 4.708 6.045l-2.38 1.655a1 1 0 1 0 1.142 1.642l1.884-1.311c.349 1.393.545 2.882.545 4.49 0 11.944-9.703 15.493-20.451 16.549z"/>
      <path d="M20 61h-4v2h4zm-1 4h-3v2h3z"/>
    </g>
  </switch>
  <path fill="#fff" d="m75.56 185.739 3.067-1.023c.146-4.09.22-11.687-1.388-12.71-2.41-1.607-12.344.073-14.682 2.557-2.264 2.41-1.46 22.498.146 23.74s3.872 2.118 5.698 3.067c2.849 1.534 4.967 3.433 5.04 5.332.219 3.36 0 8.474-1.534 9.935-2.264 2.118-6.282 1.168-6.793-.293-.585-1.607-.585-3.433-.585-5.113l-4.455.292c-.366 5.917.365 10.738 1.388 11.834 1.753 1.826 14.828-.658 15.85-2.63 2.046-3.871 1.68-18.919.804-20.087-1.023-1.388-3.726-2.557-5.186-3.214-2.557-1.096-4.894-2.41-5.625-3.799-1.534-2.775-.95-8.108-.365-11.248s6.282-6.355 7.816-1.315c.365 1.315.657 2.848.803 4.675zm6.792 1.022-9.86 3.652c0-4.528-.366-6.72-.658-8.327-.073-.438-.877-.365-.95 0-.365 1.826-1.022 7.89-.146 9.642.439.877 2.046 1.461 3.652 2.119 1.827.803 4.091 1.534 5.698 2.775 3.506 2.703 1.534 21.914-.657 25.931-2.119 4.018-17.823 7.962-21.33 4.237-2.41-2.557-2.483-10.08-1.533-17.97l11.248-1.314c-.073 3.14-.146 4.31-.146 5.405 0 1.68.658 1.9 1.17 1.388 1.095-1.096.73-4.82.656-7.231 0-1.023-1.533-1.534-2.994-2.265-1.9-1.022-4.31-1.899-5.99-3.214-3.506-2.775-3.068-25.858.438-29.729 3.433-3.798 15.047-6.428 19.065-3.798 2.118 1.388 2.776 13.002 2.337 18.7zm23.74-7.596c.073-1.827-.073-4.237-.438-6.21-4.09 0-10.592.293-15.12.804-.804 11.76-1.461 34.624-.585 50.328 6.063.365 11.906-.876 15.266-2.191a23.68 23.68 0 0 0-.146-5.113c-2.775.365-7.085.73-9.715.657-.51-4.017-.584-9.496-.073-13.878l10.227-3.726c.146-1.46 0-3.14-.22-4.529l-10.518 1.096c-.146-5.916.438-11.03.95-15.412 3.36-.877 7.67-1.461 10.372-1.826zm3.652 2.556c-3.214.438-7.377 1.169-10.226 1.9-.365 2.483-.804 5.697-.95 8.619l9.57-1.315c.949 3.652 1.022 7.523.291 11.322l-10.08 4.09c-.219 2.41-.365 5.479-.292 7.743 2.41-.22 6.209-.803 9.204-1.826.657 4.675.876 7.816.219 12.344-4.894 2.411-12.564 4.53-21.768 3.799-.584-18.334 1.242-44.63 2.63-58.07 6.501-1.17 15.486-1.9 21.037-1.973 1.023 4.383 1.023 9.277.365 13.367zm40.613-8.838c-1.899-.146-4.017-.146-5.843.365-.146 6.428-.95 18.407-2.046 26.223-.365 2.484-3.433 1.315-3.725 0-1.972-7.889-3.798-18.261-5.405-23.155a11.59 11.59 0 0 0-2.849.584c-.73 6.136-2.264 16.581-4.529 22.571-.438 1.169-3.287 2.995-3.944 0-1.826-8.838-2.41-21.402-2.776-27.757-1.68.146-3.36.73-4.748 1.534.365 16.07 2.118 37.545 3.58 51.131 2.337.22 5.624.293 7.742.073 1.388-5.259 3.652-18.334 4.748-26.369.365-2.556 3.36-2.118 3.944 0 1.9 6.574 3.141 17.531 4.164 24.397 2.118 0 5.405-.073 7.67-.292 1.899-12.125 3.287-34.989 4.017-49.305zm4.383-4.53c-1.388 16.874-3.725 43.243-6.428 57.195-3.944.73-10.518 1.169-13.806.95-.584-5.187-1.241-11.98-1.972-17.75-1.46 7.304-3.433 15.85-4.675 19.722-3.944 1.023-9.715.95-13.659.511-1.169-15.558-2.264-39.298-2.045-57.486 3.14-2.41 6.793-3.945 11.833-3.58 0 5.406.22 15.12.877 23.01 1.241-5.333 2.483-11.98 3.14-16.654 2.776-1.9 5.698-2.192 8.693-2.192 1.169 3.652 2.63 9.788 3.725 15.632.658-6.282 1.023-13.294 1.315-17.97 4.602-2.045 8.765-1.825 13.002-1.387zm19.284 47.553c-3.872.511-8.693.73-8.693.73-.51-10.445-.876-32.87.22-43.534-1.68 0-3.507.219-5.04.657-.512 16.654-.366 37.91.219 49.525 4.601-.073 9.642-.804 13.22-2.046.074-1.753.147-3.798.074-5.332zm2.483-4.31c.439 3.653.22 8.182-.219 12.272-5.551 2.63-12.564 3.871-19.868 3.944-.292-13.367.438-37.399 1.753-56.755 4.237-1.973 8.108-2.192 12.49-2.192-1.825 10.738-2.483 33.528-2.41 44.12 1.68-.22 4.164-.512 8.254-1.389zm22.644-38.932c-4.236.073-10.664.438-14.974 1.022-.584 15.997-.95 33.674.292 49.452a41.88 41.88 0 0 0 4.675-.73c-.511-5.844-.876-13.368-.438-19.139l9.496-1.826c.146-1.899.292-4.31.292-6.209l-9.569.877c.22-5.99.365-10.884.584-15.413 3.214-.584 6.647-1.095 9.496-1.168.073-1.9.146-4.748.146-6.866zm4.31-4.53c.146 4.383-.292 10.884-.73 14.537-3.507-.073-7.013.365-9.277.803-.146 2.484-.292 5.625-.512 8.473l9.131-1.168c.073 4.455-.292 9.35-.95 13.586l-9.276 2.118c-.365 4.967-.22 12.272.219 19.284 0 0-7.524 2.119-11.76 1.826-.95-18.7.219-38.275 1.534-57.267 6.281-1.242 15.412-2.118 21.62-2.191zm26.734 54.346c-.95-12.271-1.314-37.253-.803-49.743-1.534-.147-3.214-.147-4.602.073-.511 10.518-1.023 24.178-.876 38.202 0 1.607-.439 2.922-2.192 3.214-3.214.511-5.405 0-6.5-1.46-1.754-2.338-1.389-25.567-.22-36.742-1.534-.366-3.14-.585-4.894-.512-1.096 11.541-2.118 32.944-.511 41.709.511 2.703.365 4.748 1.972 5.332 1.826.658 5.99-.876 12.49-3.287.147 2.995.22 3.433.22 3.945 1.899-.073 4.382-.366 5.916-.73zm3.799-53.834c-1.242 14.025-1.9 42.731-1.169 56.245-3.14 1.68-8.765 2.63-13.002 2.337 0-.95-.073-1.68-.073-2.337-4.31 1.607-8.327 2.63-10.226 1.972-2.484-.877-3.287-3.725-3.945-8.181-1.388-9.861.658-33.82 2.41-46.603 4.749-.657 7.67-.438 11.907.95-2.045 13.002-2.849 36.96-2.191 37.91.365.511 1.168.438 2.045.22.292-14.098 1.46-29.146 2.483-41.782 3.872-1.315 7.67-1.461 11.76-.73zm19.284 47.26c-3.872.511-8.693.73-8.693.73-.511-10.445-.876-32.87.22-43.534-1.68 0-3.507.219-5.04.657-.512 16.654-.366 37.91.218 49.525 4.602-.073 9.642-.804 13.222-2.046.073-1.753.146-3.798.073-5.332zm2.483-4.31c.438 3.653.22 8.182-.219 12.272-5.551 2.63-12.564 3.871-19.868 3.944-.292-13.367.438-37.399 1.753-56.755 4.236-1.973 8.108-2.192 12.49-2.192-1.826 10.738-2.483 33.528-2.41 44.12 1.68-.22 4.164-.512 8.254-1.389z"/>
</svg>